# xmcd
# Copyright (C) 1995-1998 Ti Kan
#
# Track frame offsets:
#       150
#       12179
#       25387
#       40235
#       56401
#       70742
#       83309
#       98004
#
# Disc length: 1501 seconds
#
# Revision: 0
# Processed by: cddbd v1.5.2PL0 Copyright (c) Steve Scherf et al.
# Submitted via: CD-Transfer v1.0
#
DISCID=5205db08
DTITLE=Weihnachten - Heimatland Quintett - 
DYEAR=2009
DGENRE=
TTITLE0=So A Schlittenfahrt (09)
TTITLE1=Salzburg Zu Weihnacht (09)
TTITLE2=Es Ist So Still (09)
TTITLE3=Zarte Spuren Im Schnee (09)
TTITLE4=Ein Stern So Hell (09)
TTITLE5=Winter In Den Bergen (09)
TTITLE6=Zünd' A Kerzerl An (09)
TTITLE7=A Weihnacht Mit Dir Allein (09)
EXTD=
EXTT0=
EXTT1=
EXTT2=
EXTT3=
EXTT4=
EXTT5=
EXTT6=
EXTT7=
PLAYORDER=
